# This file uses meters as units for non-parametric coordinates.

mtllib chair1.mtl
g default
v 0.000000 43.973610 -28.178446
v -56.300644 43.973610 -28.178446
v 0.000000 50.196514 -28.178446
v -56.300644 50.196514 -28.178446
v 0.000000 50.196514 28.178446
v -56.300644 50.196514 28.178446
v 0.000000 43.973610 28.178446
v -56.300644 43.973610 28.178446
v -51.437843 43.973610 -28.178446
v -51.437843 43.973610 28.178446
v -51.437843 50.196514 28.178446
v -51.437843 50.196514 -28.178446
v 0.000000 50.196514 -22.542759
v -51.437843 50.196514 -22.542759
v -56.300644 50.196514 -22.542759
v -56.300644 43.973610 -22.542759
v -51.437843 43.973610 -22.542759
v 0.000000 43.973610 -22.542759
v 0.000000 43.973610 23.106323
v -51.437843 43.973610 23.106323
v -56.300644 43.973610 23.106323
v -56.300644 50.196514 23.106323
v -51.437843 50.196514 23.106323
v 0.000000 50.196514 23.106323
v -5.143799 43.973610 -28.178446
v -5.143799 43.973610 -22.542759
v -5.143799 43.973610 23.106323
v -5.143799 43.973610 28.178446
v -5.143799 50.196514 28.178446
v -5.143799 50.196514 23.106323
v -5.143799 50.196514 -22.542759
v -5.143799 50.196514 -28.178446
v -51.437843 0.000000 -28.178446
v -51.437843 0.000000 -22.542759
v -56.300644 0.000000 -22.542759
v -56.300644 0.000000 -28.178446
v -51.437843 0.000000 23.106323
v -56.300644 0.000000 23.106323
v -51.437843 0.000000 28.178446
v -56.300644 0.000000 28.178446
v -5.143799 0.000000 -22.542759
v 0.000000 0.000000 -22.542759
v -5.143799 0.000000 -28.178446
v 0.000000 0.000000 -28.178446
v 0.000000 0.000000 28.178446
v -5.143799 0.000000 28.178446
v -5.143799 0.000000 23.106323
v 0.000000 0.000000 23.106323
v -51.437843 120.368256 -22.542759
v -56.300644 120.368256 -22.542759
v -51.437843 120.368256 -28.178446
v -56.300644 120.368256 -28.178446
v -51.437843 120.368256 28.178446
v -51.437843 120.368256 23.106323
v -56.300644 120.368256 23.106323
v -56.300644 120.368256 28.178446
v -51.437843 113.351089 28.178446
v -51.437843 113.351089 23.106323
v -56.300644 113.351089 23.106323
v -56.300644 113.351089 28.178446
v -51.437843 113.351089 -22.542759
v -51.437843 113.351089 -28.178446
v -56.300644 113.351089 -28.178446
v -56.300644 113.351089 -22.542759
v -51.437843 113.351089 -22.542759
v -56.300644 113.351089 -22.542759
v -56.300644 120.368256 -22.542759
v -51.437843 120.368256 -22.542759
v -51.437843 113.351089 0.281785
v -56.300644 113.351089 0.281785
v -56.300644 120.368256 0.281785
v -51.437843 120.368256 0.281785
v -51.437843 113.351089 -11.130487
v -51.437843 120.368256 -11.130487
v -56.300644 120.368256 -11.130487
v -56.300644 113.351089 -11.130487
v -51.437843 113.351089 11.694054
v -56.300644 113.351089 11.694054
v -56.300644 120.368256 11.694054
v -51.437843 120.368256 11.694054
v -51.437843 113.351089 5.987921
v -51.437843 120.368256 5.987921
v -56.300644 120.368256 5.987921
v -56.300644 113.351089 5.987921
v -51.437843 113.351089 17.400190
v -56.300644 113.351089 17.400190
v -56.300644 120.368256 17.400190
v -51.437843 120.368256 17.400190
v -51.437843 113.351089 -5.424351
v -56.300644 113.351089 -5.424351
v -56.300644 120.368256 -5.424351
v -51.437843 120.368256 -5.424351
v -51.437843 113.351089 -16.836622
v -51.437843 120.368256 -16.836622
v -56.300644 120.368256 -16.836622
v -56.300644 113.351089 -16.836622
v -56.300644 50.196514 -11.130487
v -51.437843 50.196514 -11.130487
v -56.300644 50.196514 -16.836622
v -51.437843 50.196514 -16.836622
v -51.437843 50.196514 17.400190
v -56.300644 50.196514 17.400190
v -56.300644 50.196514 11.694054
v -51.437843 50.196514 11.694054
v -56.300644 50.196514 5.987921
v -51.437843 50.196514 5.987921
v -56.300644 50.196514 0.281785
v -51.437843 50.196514 0.281785
v -56.300644 50.196514 -5.424351
v -51.437843 50.196514 -5.424351
vt 0.603407 0.250000
vt 0.603407 0.000000
vt 0.625000 0.000000
vt 0.625000 0.250000
vt 0.625000 0.477500
vt 0.603407 0.477500
vt 0.603407 0.275000
vt 0.625000 0.275000
vt 0.603407 0.750000
vt 0.603407 0.500000
vt 0.625000 0.500000
vt 0.625000 0.750000
vt 0.625000 0.975000
vt 0.603407 0.975000
vt 0.603407 0.772500
vt 0.625000 0.772500
vt 0.650000 0.250000
vt 0.650000 0.000000
vt 0.852500 0.000000
vt 0.852500 0.250000
vt 0.147500 0.250000
vt 0.147500 0.000000
vt 0.350000 0.000000
vt 0.350000 0.250000
vt 0.397841 0.975000
vt 0.397841 0.772500
vt 0.397841 0.750000
vt 0.397841 0.500000
vt 0.397841 0.477500
vt 0.397841 0.275000
vt 0.397841 0.250000
vt 0.397841 0.000000
vt 0.625000 0.275000
vt 0.603407 0.275000
vt 0.603407 0.250000
vt 0.625000 0.250000
vt 0.603407 1.000000
vt 0.603407 0.975000
vt 0.625000 0.975000
vt 0.625000 1.000000
vt 0.397841 1.000000
vt 0.603407 1.000000
vt 0.375000 0.000000
vt 0.375000 0.250000
vt 0.625000 0.772500
vt 0.603407 0.772500
vt 0.603407 0.750000
vt 0.625000 0.750000
vt 0.875000 0.000000
vt 0.875000 0.250000
vt 0.603407 0.500000
vt 0.603407 0.477500
vt 0.625000 0.477500
vt 0.625000 0.500000
vt 0.125000 0.000000
vt 0.125000 0.250000
vt 0.375000 0.975000
vt 0.397841 0.975000
vt 0.397841 1.000000
vt 0.375000 1.000000
vt 0.375000 0.772500
vt 0.375000 0.975000
vt 0.375000 0.750000
vt 0.397841 0.750000
vt 0.397841 0.772500
vt 0.375000 0.772500
vt 0.375000 0.500000
vt 0.375000 0.750000
vt 0.375000 0.477500
vt 0.375000 0.275000
vt 0.625000 1.000000
vt 0.375000 1.000000
vt 0.625000 0.275000
vt 0.603407 0.275000
vt 0.603407 0.250000
vt 0.625000 0.250000
vt 0.603407 0.500000
vt 0.603407 0.477500
vt 0.603407 0.477500
vt 0.625000 0.477500
vt 0.625000 0.477500
vt 0.603407 0.477500
vt 0.625000 0.477500
vt 0.625000 0.500000
vt 0.603407 0.477500
vt 0.625000 0.477500
vt 0.625000 0.477500
vt 0.603407 0.477500
vt 0.625000 0.477500
vt 0.625000 0.477500
vt 0.603407 0.477500
vt 0.603407 0.477500
vt 0.603407 0.477500
vt 0.625000 0.477500
vt 0.625000 0.477500
vt 0.603407 0.477500
vt 0.625000 0.477500
vt 0.625000 0.477500
vt 0.603407 0.477500
vt 0.603407 0.477500
vt 0.603407 0.477500
vt 0.603407 0.477500
vt 0.625000 0.477500
vt 0.625000 0.477500
vt 0.603407 0.477500
vt 0.625000 0.477500
vt 0.625000 0.477500
vt 0.603407 0.477500
vt 0.603407 0.477500
vt 0.625000 0.477500
vt 0.625000 0.477500
vt 0.603407 0.477500
vt 0.625000 0.477500
vt 0.625000 0.477500
vt 0.603407 0.477500
vt 0.603407 0.477500
vt 0.603407 0.477500
vt 0.603407 0.477500
vt 0.625000 0.477500
vt 0.625000 0.477500
vt 0.603407 0.477500
vt 0.625000 0.477500
vt 0.625000 0.477500
vt 0.603407 0.477500
vt 0.625000 0.477500
vt 0.603407 0.477500
vn 0.000000 0.000000 -1.000000
vn 0.000000 0.000000 -1.000000
vn 0.000000 0.000000 -1.000000
vn 0.000000 0.000000 -1.000000
vn 0.000000 1.000000 0.000000
vn 0.000000 1.000000 0.000000
vn 0.000000 1.000000 0.000000
vn 0.000000 1.000000 0.000000
vn 0.000000 0.000000 1.000000
vn 0.000000 0.000000 1.000000
vn 0.000000 0.000000 1.000000
vn 0.000000 0.000000 1.000000
vn 0.000000 -1.000000 0.000000
vn 0.000000 -1.000000 0.000000
vn 0.000000 -1.000000 0.000000
vn 0.000000 -1.000000 0.000000
vn -1.000000 0.000000 0.000000
vn -1.000000 0.000000 0.000000
vn -1.000000 0.000000 0.000000
vn -1.000000 0.000000 0.000000
vn 1.000000 0.000000 0.000000
vn 1.000000 0.000000 0.000000
vn 1.000000 0.000000 0.000000
vn 1.000000 0.000000 0.000000
vn 0.000000 -1.000000 0.000000
vn 0.000000 -1.000000 0.000000
vn 0.000000 -1.000000 0.000000
vn 0.000000 -1.000000 0.000000
vn 0.000000 0.000000 1.000000
vn 0.000000 0.000000 1.000000
vn 0.000000 0.000000 1.000000
vn 0.000000 0.000000 1.000000
vn 0.000000 1.000000 0.000000
vn 0.000000 1.000000 0.000000
vn 0.000000 1.000000 0.000000
vn 0.000000 1.000000 0.000000
vn 0.000000 0.000000 -1.000000
vn 0.000000 0.000000 -1.000000
vn 0.000000 0.000000 -1.000000
vn 0.000000 0.000000 -1.000000
vn 0.000000 1.000000 0.000000
vn 0.000000 1.000000 0.000000
vn 0.000000 1.000000 0.000000
vn 0.000000 1.000000 0.000000
vn 0.000000 1.000000 0.000000
vn 0.000000 1.000000 0.000000
vn 0.000000 1.000000 0.000000
vn 0.000000 1.000000 0.000000
vn -1.000000 0.000000 0.000000
vn -1.000000 0.000000 0.000000
vn -1.000000 0.000000 0.000000
vn -1.000000 0.000000 0.000000
vn 0.000000 -1.000000 0.000000
vn 0.000000 -1.000000 0.000000
vn 0.000000 -1.000000 0.000000
vn 0.000000 -1.000000 0.000000
vn 0.000000 -1.000000 0.000000
vn 0.000000 -1.000000 0.000000
vn 0.000000 -1.000000 0.000000
vn 0.000000 -1.000000 0.000000
vn 1.000000 0.000000 0.000000
vn 1.000000 0.000000 0.000000
vn 1.000000 0.000000 0.000000
vn 1.000000 0.000000 0.000000
vn 0.000000 -1.000000 0.000000
vn 0.000000 -1.000000 0.000000
vn 0.000000 -1.000000 0.000000
vn 0.000000 -1.000000 0.000000
vn 0.000000 -1.000000 0.000000
vn 0.000000 -1.000000 0.000000
vn 0.000000 -1.000000 0.000000
vn 0.000000 -1.000000 0.000000
vn -1.000000 0.000000 0.000000
vn -1.000000 0.000000 0.000000
vn -1.000000 0.000000 0.000000
vn -1.000000 0.000000 0.000000
vn 0.000000 1.000000 0.000000
vn 0.000000 1.000000 0.000000
vn 0.000000 1.000000 0.000000
vn 0.000000 1.000000 0.000000
vn 0.000000 1.000000 0.000000
vn 0.000000 1.000000 0.000000
vn 0.000000 1.000000 0.000000
vn 0.000000 1.000000 0.000000
vn 1.000000 0.000000 0.000000
vn 1.000000 0.000000 0.000000
vn 1.000000 0.000000 0.000000
vn 1.000000 0.000000 0.000000
vn 0.000000 -1.000000 0.000000
vn 0.000000 -1.000000 0.000000
vn 0.000000 -1.000000 0.000000
vn 0.000000 -1.000000 0.000000
vn 0.000000 -1.000000 0.000000
vn 0.000000 -1.000000 0.000000
vn 0.000000 -1.000000 0.000000
vn 0.000000 -1.000000 0.000000
vn 0.000000 -1.000000 0.000000
vn 0.000000 -1.000000 0.000000
vn 0.000000 -1.000000 0.000000
vn 0.000000 -1.000000 0.000000
vn 0.000000 0.000000 1.000000
vn 0.000000 0.000000 1.000000
vn 0.000000 0.000000 1.000000
vn 0.000000 0.000000 1.000000
vn 0.000000 1.000000 0.000000
vn 0.000000 1.000000 0.000000
vn 0.000000 1.000000 0.000000
vn 0.000000 1.000000 0.000000
vn 0.000000 1.000000 0.000000
vn 0.000000 1.000000 0.000000
vn 0.000000 1.000000 0.000000
vn 0.000000 1.000000 0.000000
vn 0.000000 1.000000 0.000000
vn 0.000000 1.000000 0.000000
vn 0.000000 1.000000 0.000000
vn 0.000000 1.000000 0.000000
vn 0.000000 0.000000 -1.000000
vn 0.000000 0.000000 -1.000000
vn 0.000000 0.000000 -1.000000
vn 0.000000 0.000000 -1.000000
vn 1.000000 0.000000 0.000000
vn 1.000000 0.000000 0.000000
vn 1.000000 0.000000 0.000000
vn 1.000000 0.000000 0.000000
vn 0.000000 0.000000 1.000000
vn 0.000000 0.000000 1.000000
vn 0.000000 0.000000 1.000000
vn 0.000000 0.000000 1.000000
vn -1.000000 0.000000 0.000000
vn -1.000000 0.000000 0.000000
vn -1.000000 0.000000 0.000000
vn -1.000000 0.000000 0.000000
vn 0.000000 0.000000 -1.000000
vn 0.000000 0.000000 -1.000000
vn 0.000000 0.000000 -1.000000
vn 0.000000 0.000000 -1.000000
vn 0.000000 0.000000 -1.000000
vn 0.000000 0.000000 -1.000000
vn 0.000000 0.000000 -1.000000
vn 0.000000 0.000000 -1.000000
vn 1.000000 0.000000 0.000000
vn 1.000000 0.000000 0.000000
vn 1.000000 0.000000 0.000000
vn 1.000000 0.000000 0.000000
vn 0.000000 0.000000 1.000000
vn 0.000000 0.000000 1.000000
vn 0.000000 0.000000 1.000000
vn 0.000000 0.000000 1.000000
vn -1.000000 0.000000 0.000000
vn -1.000000 0.000000 0.000000
vn -1.000000 0.000000 0.000000
vn -1.000000 0.000000 0.000000
vn 0.000000 0.000000 1.000000
vn 0.000000 0.000000 1.000000
vn 0.000000 0.000000 1.000000
vn 0.000000 0.000000 1.000000
vn -1.000000 0.000000 0.000000
vn -1.000000 0.000000 0.000000
vn -1.000000 0.000000 0.000000
vn -1.000000 0.000000 0.000000
vn 0.000000 0.000000 -1.000000
vn 0.000000 0.000000 -1.000000
vn 0.000000 0.000000 -1.000000
vn 0.000000 0.000000 -1.000000
vn 1.000000 0.000000 0.000000
vn 1.000000 0.000000 0.000000
vn 1.000000 0.000000 0.000000
vn 1.000000 0.000000 0.000000
vn 0.000000 0.000000 1.000000
vn 0.000000 0.000000 1.000000
vn 0.000000 0.000000 1.000000
vn 0.000000 0.000000 1.000000
vn -1.000000 0.000000 0.000000
vn -1.000000 0.000000 0.000000
vn -1.000000 0.000000 0.000000
vn -1.000000 0.000000 0.000000
vn 0.000001 0.000000 -1.000000
vn 0.000001 0.000000 -1.000000
vn 0.000001 0.000000 -1.000000
vn 0.000001 0.000000 -1.000000
vn 1.000000 0.000000 0.000000
vn 1.000000 0.000000 0.000000
vn 1.000000 0.000000 0.000000
vn 1.000000 0.000000 0.000000
vn 0.000000 0.000000 1.000000
vn 0.000000 0.000000 1.000000
vn 0.000000 0.000000 1.000000
vn 0.000000 0.000000 1.000000
vn 1.000000 0.000000 0.000000
vn 1.000000 0.000000 0.000000
vn 1.000000 0.000000 0.000000
vn 1.000000 0.000000 0.000000
vn 0.000000 0.000000 -1.000000
vn 0.000000 0.000000 -1.000000
vn 0.000000 0.000000 -1.000000
vn 0.000000 0.000000 -1.000000
vn -1.000000 0.000000 0.000000
vn -1.000000 0.000000 0.000000
vn -1.000000 0.000000 0.000000
vn -1.000000 0.000000 0.000000
vn 1.000000 0.000000 0.000000
vn 1.000000 0.000000 0.000000
vn 1.000000 0.000000 0.000000
vn 1.000000 0.000000 0.000000
vn 0.000000 0.000000 -1.000000
vn 0.000000 0.000000 -1.000000
vn 0.000000 0.000000 -1.000000
vn 0.000000 0.000000 -1.000000
vn -1.000000 0.000000 0.000000
vn -1.000000 0.000000 0.000000
vn -1.000000 0.000000 0.000000
vn -1.000000 0.000000 0.000000
vn 0.000000 0.000000 1.000000
vn 0.000000 0.000000 1.000000
vn 0.000000 0.000000 1.000000
vn 0.000000 0.000000 1.000000
vn 1.000000 0.000000 0.000000
vn 1.000000 0.000000 0.000000
vn 1.000000 0.000000 0.000000
vn 1.000000 0.000000 0.000000
vn 0.000000 0.000000 -1.000000
vn 0.000000 0.000000 -1.000000
vn 0.000000 0.000000 -1.000000
vn 0.000000 0.000000 -1.000000
vn -1.000000 0.000000 0.000000
vn -1.000000 0.000000 0.000000
vn -1.000000 0.000000 0.000000
vn -1.000000 0.000000 0.000000
vn 0.000000 0.000000 1.000000
vn 0.000000 0.000000 1.000000
vn 0.000000 0.000000 1.000000
vn 0.000000 0.000000 1.000000
vn 1.000000 0.000000 0.000000
vn 1.000000 0.000000 0.000000
vn 1.000000 0.000000 0.000000
vn 1.000000 0.000000 0.000000
vn 0.000000 0.000000 -1.000000
vn 0.000000 0.000000 -1.000000
vn 0.000000 0.000000 -1.000000
vn 0.000000 0.000000 -1.000000
vn -1.000000 0.000000 0.000000
vn -1.000000 0.000000 0.000000
vn -1.000000 0.000000 0.000000
vn -1.000000 0.000000 0.000000
vn 0.000000 0.000000 1.000000
vn 0.000000 0.000000 1.000000
vn 0.000000 0.000000 1.000000
vn 0.000000 0.000000 1.000000
vn 0.000000 -1.000000 0.000000
vn 0.000000 -1.000000 0.000000
vn 0.000000 -1.000000 0.000000
vn 0.000000 -1.000000 0.000000
vn -1.000000 0.000000 0.000000
vn -1.000000 0.000000 0.000000
vn -1.000000 0.000000 0.000000
vn -1.000000 0.000000 0.000000
vn 0.000000 1.000000 0.000000
vn 0.000000 1.000000 0.000000
vn 0.000000 1.000000 0.000000
vn 0.000000 1.000000 0.000000
vn 1.000000 0.000000 0.000000
vn 1.000000 0.000000 0.000000
vn 1.000000 0.000000 0.000000
vn 1.000000 0.000000 0.000000
vn 0.000000 -1.000000 0.000000
vn 0.000000 -1.000000 0.000000
vn 0.000000 -1.000000 0.000000
vn 0.000000 -1.000000 0.000000
vn -1.000000 0.000000 0.000000
vn -1.000000 0.000000 0.000000
vn -1.000000 0.000000 0.000000
vn -1.000000 0.000000 0.000000
vn 0.000000 1.000000 0.000000
vn 0.000000 1.000000 0.000000
vn 0.000000 1.000000 0.000000
vn 0.000000 1.000000 0.000000
vn 1.000000 0.000000 0.000000
vn 1.000000 0.000000 0.000000
vn 1.000000 0.000000 0.000000
vn 1.000000 0.000000 0.000000
vn 1.000000 0.000000 0.000000
vn 1.000000 0.000000 0.000000
vn 1.000000 0.000000 0.000000
vn 1.000000 0.000000 0.000000
vn 0.000000 1.000000 0.000000
vn 0.000000 1.000000 0.000000
vn 0.000000 1.000000 0.000000
vn 0.000000 1.000000 0.000000
vn -1.000000 0.000000 0.000000
vn -1.000000 0.000000 0.000000
vn -1.000000 0.000000 0.000000
vn -1.000000 0.000000 0.000000
vn 0.000000 -1.000000 0.000000
vn 0.000000 -1.000000 0.000000
vn 0.000000 -1.000000 0.000000
vn 0.000000 -1.000000 0.000000
vn 0.000000 -1.000000 0.000000
vn 0.000000 -1.000000 0.000000
vn 0.000000 -1.000000 0.000000
vn 0.000000 -1.000000 0.000000
vn -1.000000 0.000000 0.000000
vn -1.000000 0.000000 0.000000
vn -1.000000 0.000000 0.000000
vn -1.000000 0.000000 0.000000
vn 0.000000 1.000000 0.000000
vn 0.000000 1.000000 0.000000
vn 0.000000 1.000000 0.000000
vn 0.000000 1.000000 0.000000
vn 1.000000 0.000000 0.000000
vn 1.000000 0.000000 0.000000
vn 1.000000 0.000000 0.000000
vn 1.000000 0.000000 0.000000
vn 1.000000 0.000000 0.000000
vn 1.000000 0.000000 0.000000
vn 1.000000 0.000000 0.000000
vn 1.000000 0.000000 0.000000
vn 0.000000 1.000000 0.000000
vn 0.000000 1.000000 0.000000
vn 0.000000 1.000000 0.000000
vn 0.000000 1.000000 0.000000
vn -1.000000 0.000000 0.000000
vn -1.000000 0.000000 0.000000
vn -1.000000 0.000000 0.000000
vn -1.000000 0.000000 0.000000
vn 0.000000 -1.000000 0.000000
vn 0.000000 -1.000000 0.000000
vn 0.000000 -1.000000 0.000000
vn 0.000000 -1.000000 0.000000
vn 0.000000 -1.000000 0.000000
vn 0.000000 -1.000000 0.000000
vn 0.000000 -1.000000 0.000000
vn 0.000000 -1.000000 0.000000
vn -1.000000 0.000000 0.000000
vn -1.000000 0.000000 0.000000
vn -1.000000 0.000000 0.000000
vn -1.000000 0.000000 0.000000
vn 0.000000 1.000000 0.000000
vn 0.000000 1.000000 0.000000
vn 0.000000 1.000000 0.000000
vn 0.000000 1.000000 0.000000
vn 1.000000 0.000000 0.000000
vn 1.000000 0.000000 0.000000
vn 1.000000 0.000000 0.000000
vn 1.000000 0.000000 0.000000
vn 0.000000 -1.000000 0.000000
vn 0.000000 -1.000000 0.000000
vn 0.000000 -1.000000 0.000000
vn 0.000000 -1.000000 0.000000
vn -1.000000 0.000000 0.000000
vn -1.000000 0.000000 0.000000
vn -1.000000 0.000000 0.000000
vn -1.000000 0.000000 0.000000
vn 0.000000 1.000000 0.000000
vn 0.000000 1.000000 0.000000
vn 0.000000 1.000000 0.000000
vn 0.000000 1.000000 0.000000
vn 1.000000 0.000000 0.000000
vn 1.000000 0.000000 0.000000
vn 1.000000 0.000000 0.000000
vn 1.000000 0.000000 0.000000
vn 1.000000 0.000000 0.000000
vn 1.000000 0.000000 0.000000
vn 1.000000 0.000000 0.000000
vn 1.000000 0.000000 0.000000
vn 0.000000 1.000000 0.000000
vn 0.000000 1.000000 0.000000
vn 0.000000 1.000000 0.000000
vn 0.000000 1.000000 0.000000
vn -1.000000 0.000000 0.000000
vn -1.000000 0.000000 0.000000
vn -1.000000 0.000000 0.000000
vn -1.000000 0.000000 0.000000
vn 0.000000 -1.000000 0.000000
vn 0.000000 -1.000000 0.000000
vn 0.000000 -1.000000 0.000000
vn 0.000000 -1.000000 0.000000
vn 0.000000 0.000000 1.000000
vn 0.000000 0.000000 1.000000
vn 0.000000 0.000000 1.000000
vn 0.000000 0.000000 1.000000
vn -1.000000 0.000000 0.000000
vn -1.000000 0.000000 0.000000
vn -1.000000 0.000000 0.000000
vn -1.000000 0.000000 0.000000
vn 0.000000 0.000000 -1.000000
vn 0.000000 0.000000 -1.000000
vn 0.000000 0.000000 -1.000000
vn 0.000000 0.000000 -1.000000
vn 1.000000 0.000000 0.000000
vn 1.000000 0.000000 0.000000
vn 1.000000 0.000000 0.000000
vn 1.000000 0.000000 0.000000
vn 0.000000 0.000000 1.000000
vn 0.000000 0.000000 1.000000
vn 0.000000 0.000000 1.000000
vn 0.000000 0.000000 1.000000
vn -1.000000 0.000000 0.000000
vn -1.000000 0.000000 0.000000
vn -1.000000 0.000000 0.000000
vn -1.000000 0.000000 0.000000
vn 0.000000 0.000000 -1.000000
vn 0.000000 0.000000 -1.000000
vn 0.000000 0.000000 -1.000000
vn 0.000000 0.000000 -1.000000
vn 1.000000 0.000000 0.000000
vn 1.000000 0.000000 0.000000
vn 1.000000 0.000000 0.000000
vn 1.000000 0.000000 0.000000
vn 0.000000 0.000000 1.000000
vn 0.000000 0.000000 1.000000
vn 0.000000 0.000000 1.000000
vn 0.000000 0.000000 1.000000
vn -1.000000 0.000000 0.000000
vn -1.000000 0.000000 0.000000
vn -1.000000 0.000000 0.000000
vn -1.000000 0.000000 0.000000
vn 1.000000 0.000000 0.000000
vn 1.000000 0.000000 0.000000
vn 1.000000 0.000000 0.000000
vn 1.000000 0.000000 0.000000
vn -1.000000 0.000000 0.000000
vn -1.000000 0.000000 0.000000
vn -1.000000 0.000000 0.000000
vn -1.000000 0.000000 0.000000
vn 0.000000 0.000000 -1.000000
vn 0.000000 0.000000 -1.000000
vn 0.000000 0.000000 -1.000000
vn 0.000000 0.000000 -1.000000
vn 1.000000 0.000000 0.000000
vn 1.000000 0.000000 0.000000
vn 1.000000 0.000000 0.000000
vn 1.000000 0.000000 0.000000
g chair2
usemtl chair1:initialShadingGroup
f 12/1/1 9/2/2 2/3/3 4/4/4
f 22/5/5 23/6/6 14/7/7 15/8/8
f 10/9/9 11/10/10 6/11/11 8/12/12
f 16/13/13 17/14/14 20/15/15 21/16/16
f 15/17/17 16/18/18 21/19/19 22/20/20
f 24/21/21 19/22/22 18/23/23 13/24/24
f 26/25/25 27/26/26 20/15/27 17/14/28
f 28/27/29 29/28/30 11/10/31 10/9/32
f 30/29/33 31/30/34 14/7/35 23/6/36
f 32/31/37 25/32/38 9/2/39 12/1/40
f 31/30/41 32/31/42 12/1/43 14/7/44
f 50/33/45 49/34/46 51/35/47 52/36/48
f 2/3/49 16/18/50 15/17/51 4/4/52
f 33/37/53 34/38/54 35/39/55 36/40/56
f 25/41/57 26/25/58 17/14/59 9/42/60
f 13/24/61 18/23/62 1/43/63 3/44/64
f 27/26/65 28/27/66 10/9/67 20/15/68
f 38/45/69 37/46/70 39/47/71 40/48/72
f 22/20/73 21/19/74 8/49/75 6/50/76
f 53/51/77 54/52/78 55/53/79 56/54/80
f 29/28/81 30/29/82 23/6/83 11/10/84
f 7/55/85 19/22/86 24/21/87 5/56/88
f 42/57/89 41/58/90 43/59/91 44/60/92
f 19/61/93 27/26/94 26/25/95 18/62/96
f 45/63/97 46/64/98 47/65/99 48/66/100
f 5/67/101 29/28/102 28/27/103 7/68/104
f 24/69/105 30/29/106 29/28/107 5/67/108
f 13/70/109 31/30/110 30/29/111 24/69/112
f 3/44/113 32/31/114 31/30/115 13/70/116
f 1/43/117 25/32/118 32/31/119 3/44/120
f 9/42/121 17/14/122 34/38/123 33/37/124
f 17/14/125 16/13/126 35/39/127 34/38/128
f 16/13/129 2/71/130 36/40/131 35/39/132
f 2/71/133 9/42/134 33/37/135 36/40/136
f 21/16/137 20/15/138 37/46/139 38/45/140
f 20/15/141 10/9/142 39/47/143 37/46/144
f 10/9/145 8/12/146 40/48/147 39/47/148
f 8/12/149 21/16/150 38/45/151 40/48/152
f 18/62/153 26/25/154 41/58/155 42/57/156
f 26/25/157 25/41/158 43/59/159 41/58/160
f 25/41/161 1/72/162 44/60/163 43/59/164
f 1/72/165 18/62/166 42/57/167 44/60/168
f 7/68/169 28/27/170 46/64/171 45/63/172
f 28/27/173 27/26/174 47/65/175 46/64/176
f 27/26/177 19/61/178 48/66/179 47/65/180
f 19/61/181 7/68/182 45/63/183 48/66/184
f 64/73/185 61/74/186 49/34/187 50/33/188
f 61/74/189 62/75/190 51/35/191 49/34/192
f 62/75/193 63/76/194 52/36/195 51/35/196
f 63/76/197 64/73/198 50/33/199 52/36/200
f 57/77/201 58/78/202 54/52/203 53/51/204
f 65/79/205 66/80/206 67/81/207 68/82/208
f 59/83/209 60/84/210 56/54/211 55/53/212
f 60/84/213 57/77/214 53/51/215 56/54/216
f 11/10/217 23/6/218 58/78/219 57/77/220
f 23/6/221 22/5/222 59/83/223 58/78/224
f 22/5/225 6/11/226 60/84/227 59/83/228
f 6/11/229 11/10/230 57/77/231 60/84/232
f 14/7/233 12/1/234 62/75/235 61/74/236
f 12/1/237 4/4/238 63/76/239 62/75/240
f 4/4/241 15/8/242 64/73/243 63/76/244
f 15/8/245 14/7/246 61/74/247 64/73/248
f 89/85/249 90/86/250 76/87/251 73/88/252
f 90/86/253 91/89/254 75/90/255 76/87/256
f 91/89/257 92/91/258 74/92/259 75/90/260
f 92/91/261 89/85/262 73/88/263 74/92/264
f 77/93/265 78/94/266 84/95/267 81/96/268
f 78/94/269 79/97/270 83/98/271 84/95/272
f 79/97/273 80/99/274 82/100/275 83/98/276
f 80/99/277 77/93/278 81/96/279 82/100/280
f 74/92/281 73/88/282 93/101/283 94/102/284
f 75/90/285 74/92/286 94/102/287 95/103/288
f 76/87/289 75/90/290 95/103/291 96/104/292
f 98/105/293 97/106/294 99/107/295 100/108/296
f 101/109/297 102/110/298 103/111/299 104/112/300
f 86/113/301 87/114/302 79/97/303 78/94/304
f 87/114/305 88/115/306 80/99/307 79/97/308
f 88/115/309 85/116/310 77/93/311 80/99/312
f 82/100/313 81/96/314 69/117/315 72/118/316
f 83/98/317 82/100/318 72/118/319 71/119/320
f 84/95/321 83/98/322 71/119/323 70/120/324
f 106/121/325 105/122/326 107/123/327 108/124/328
f 58/78/329 59/83/330 86/113/331 85/116/332
f 59/83/333 55/53/334 87/114/335 86/113/336
f 55/53/337 54/52/338 88/115/339 87/114/340
f 54/52/341 58/78/342 85/116/343 88/115/344
f 108/124/345 107/123/346 109/125/347 110/126/348
f 70/120/349 71/119/350 91/89/351 90/86/352
f 71/119/353 72/118/354 92/91/355 91/89/356
f 72/118/357 69/117/358 89/85/359 92/91/360
f 94/102/361 93/101/362 65/79/363 68/82/364
f 95/103/365 94/102/366 68/82/367 67/81/368
f 96/104/369 95/103/370 67/81/371 66/80/372
f 93/101/373 96/104/374 66/80/375 65/79/376
f 73/88/377 76/87/378 97/106/379 98/105/380
f 76/87/381 96/104/382 99/107/383 97/106/384
f 96/104/385 93/101/386 100/108/387 99/107/388
f 93/101/389 73/88/390 98/105/391 100/108/392
f 85/116/393 86/113/394 102/110/395 101/109/396
f 86/113/397 78/94/398 103/111/399 102/110/400
f 78/94/401 77/93/402 104/112/403 103/111/404
f 77/93/405 85/116/406 101/109/407 104/112/408
f 81/96/409 84/95/410 105/122/411 106/121/412
f 84/95/413 70/120/414 107/123/415 105/122/416
f 69/117/417 81/96/418 106/121/419 108/124/420
f 70/120/421 90/86/422 109/125/423 107/123/424
f 90/86/425 89/85/426 110/126/427 109/125/428
f 89/85/429 69/117/430 108/124/431 110/126/432
