# This file uses meters as units for non-parametric coordinates.

mtllib glass.mtl
g default
v 0.000000 0.000002 -0.000000
v 1.321031 0.000002 -2.288092
v 1.012915 0.000002 -2.695662
v 1.828056 0.000002 -2.225040
v 1.935367 7.492415 -3.352151
v -1.321030 0.000002 -2.288092
v -1.828055 0.000002 -2.225041
v -1.012913 0.000002 -2.695663
v -1.935365 7.492415 -3.352153
v -2.642060 0.000002 -0.000000
v -2.840969 0.000002 0.470622
v -2.840969 0.000002 -0.470623
v -3.870732 7.492415 -0.000001
v -1.321031 0.000002 2.288092
v -1.012914 0.000002 2.695663
v -1.828055 0.000002 2.225040
v -1.935366 7.492415 3.352152
v 1.321030 0.000002 2.288092
v 1.828055 0.000002 2.225040
v 1.012914 0.000002 2.695663
v 1.935366 7.492415 3.352152
v 2.642060 0.000002 -0.000000
v 2.840969 0.000002 -0.470622
v 2.840969 0.000002 0.470622
v 3.870732 7.492415 -0.000000
v 1.345440 6.573234 -3.271612
v 1.821898 7.398731 -3.343943
v -1.821897 7.398731 -3.343944
v -1.345438 6.573234 -3.271614
v -2.160580 6.573234 -2.800991
v -1.984990 7.398731 -3.249781
v -3.806889 7.398731 -0.094163
v -3.506019 6.573234 -0.470623
v -3.506019 6.573234 0.470622
v -3.806889 7.398731 0.094162
v -1.984991 7.398731 3.249781
v -2.160581 6.573234 2.800990
v -1.345439 6.573234 3.271613
v -1.821898 7.398731 3.343943
v 1.821898 7.398731 3.343943
v 1.345439 6.573234 3.271613
v 2.160580 6.573234 2.800991
v 1.984991 7.398731 3.249781
v 3.806889 7.398731 0.094162
v 3.506019 6.573234 0.470622
v 1.984992 7.398731 -3.249781
v 2.160581 6.573234 -2.800990
v 3.506019 6.573234 -0.470622
v 3.806889 7.398731 -0.094162
v -0.000000 1.168732 -0.000001
v 1.943934 7.661768 -3.366990
v 1.868354 7.804647 -3.236083
v -1.943932 7.661768 -3.366991
v -1.868353 7.804647 -3.236084
v -3.887866 7.661768 -0.000001
v -3.736707 7.804647 -0.000001
v -1.943933 7.661768 3.366990
v -1.868354 7.804647 3.236083
v 1.943933 7.661768 3.366991
v 1.868353 7.804647 3.236084
v 3.887866 7.661768 -0.000000
v 3.736707 7.804647 -0.000000
v 1.861027 7.804641 -3.223391
v -1.861025 7.804641 -3.223392
v -3.722052 7.804641 -0.000001
v -1.861026 7.804641 3.223392
v 1.861026 7.804641 3.223392
v 3.722052 7.804641 -0.000000
v -1.530242 1.168731 -2.228968
v -1.303195 1.168731 -2.257202
v -1.165220 1.168731 -2.439713
v -1.534788 7.674504 -3.079823
v -1.899810 7.674504 -2.869078
v 1.165221 1.168731 -2.439713
v 1.303196 1.168731 -2.257202
v 1.530243 1.168731 -2.228968
v 1.899811 7.674504 -2.869077
v 1.534789 7.674504 -3.079822
v -2.695463 1.168731 0.210744
v -2.606391 1.168731 -0.000001
v -2.695463 1.168731 -0.210747
v -3.434599 7.674504 -0.210746
v -3.434599 7.674504 0.210745
v -1.165221 1.168731 2.439712
v -1.303196 1.168731 2.257201
v -1.530242 1.168731 2.228967
v -1.899811 7.674504 2.869077
v -1.534789 7.674504 3.079823
v 1.530242 1.168731 2.228967
v 1.303195 1.168731 2.257201
v 1.165220 1.168731 2.439712
v 1.534788 7.674504 3.079823
v 1.899810 7.674504 2.869078
v 2.695463 1.168731 -0.210748
v 2.606391 1.168731 -0.000002
v 2.695463 1.168731 0.210743
v 3.434599 7.674504 0.210745
v 3.434599 7.674504 -0.210746
vt 0.449154 0.020934
vt 0.357389 0.132626
vt 0.408236 0.267942
vt 0.550846 0.291566
vt 0.642611 0.179874
vt 0.500000 0.150000
vt 0.591765 0.044558
vt 0.566313 0.040448
vt 0.550846 0.020934
vt 0.433687 0.040448
vt 0.408236 0.044558
vt 0.367374 0.155305
vt 0.357389 0.179874
vt 0.433687 0.270162
vt 0.449154 0.291566
vt 0.566313 0.270162
vt 0.591764 0.267942
vt 0.632626 0.155305
vt 0.642611 0.132626
vt 0.377687 0.649806
vt 0.618991 0.629124
vt 0.381009 0.629124
vt 0.409392 0.312500
vt 0.422676 0.629124
vt 0.451059 0.312500
vt 0.464342 0.629124
vt 0.492726 0.312500
vt 0.506009 0.629124
vt 0.534392 0.312500
vt 0.547676 0.629124
vt 0.576059 0.312500
vt 0.589342 0.629124
vt 0.617726 0.312500
vt 0.375000 0.312500
vt 0.382274 0.312500
vt 0.375211 0.627410
vt 0.423941 0.312500
vt 0.410658 0.629124
vt 0.465608 0.312500
vt 0.452324 0.629124
vt 0.507274 0.312500
vt 0.493991 0.629124
vt 0.548941 0.312500
vt 0.535658 0.629124
vt 0.590608 0.312500
vt 0.577324 0.629124
vt 0.375000 0.668887
vt 0.376185 0.668887
vt 0.375000 0.673400
vt 0.417852 0.668887
vt 0.459518 0.668887
vt 0.501185 0.668887
vt 0.542852 0.668887
vt 0.584518 0.668888
vt 0.625000 0.681558
vt 0.624123 0.687839
vt 0.584220 0.687839
vt 0.375887 0.687839
vt 0.415789 0.687839
vt 0.417553 0.687839
vt 0.457456 0.687839
vt 0.459220 0.687839
vt 0.499123 0.687839
vt 0.500887 0.687839
vt 0.540789 0.687839
vt 0.542553 0.687839
vt 0.582456 0.687839
vt 0.415482 0.668887
vt 0.416667 0.673400
vt 0.375000 0.681558
vt 0.457148 0.668887
vt 0.458333 0.673400
vt 0.416667 0.681558
vt 0.498815 0.668887
vt 0.500000 0.673400
vt 0.458333 0.681558
vt 0.540482 0.668887
vt 0.541667 0.673400
vt 0.500000 0.681558
vt 0.582148 0.668887
vt 0.583333 0.673400
vt 0.541667 0.681558
vt 0.623815 0.668887
vt 0.625000 0.673400
vt 0.583333 0.681558
vt 0.421875 0.979066
vt 0.578126 0.979064
vt 0.343750 0.843750
vt 0.421875 0.979066
vt 0.421875 0.708434
vt 0.343750 0.843750
vt 0.578125 0.708434
vt 0.421875 0.708434
vt 0.656250 0.843750
vt 0.578125 0.708434
vt 0.578125 0.979066
vt 0.500000 0.837500
vt 0.656250 0.843750
vt 0.415126 0.967378
vt 0.432567 0.979066
vt 0.564628 0.979066
vt 0.583471 0.969807
vt 0.350499 0.832061
vt 0.349096 0.853009
vt 0.435372 0.708434
vt 0.416529 0.717693
vt 0.584874 0.720122
vt 0.567433 0.708434
vt 0.649501 0.855439
vt 0.650904 0.834491
vt 0.427719 0.968476
vt 0.435372 0.979066
vt 0.416529 0.969807
vt 0.572281 0.968476
vt 0.584873 0.967378
vt 0.567433 0.979066
vt 0.355439 0.843282
vt 0.350499 0.855439
vt 0.349096 0.834491
vt 0.427719 0.718089
vt 0.415127 0.720122
vt 0.432567 0.708434
vt 0.572281 0.718089
vt 0.564628 0.708434
vt 0.583471 0.717693
vt 0.644561 0.843282
vt 0.649501 0.832061
vt 0.650904 0.853009
vn 0.000000 -1.000000 0.000000
vn 0.000000 -1.000000 0.000000
vn 0.000000 -1.000000 0.000000
vn 0.000000 -1.000000 0.000000
vn 0.000000 -1.000000 0.000000
vn 0.000000 -1.000000 0.000000
vn 0.000000 -1.000000 0.000000
vn 0.000000 -1.000000 0.000000
vn 0.000000 -1.000000 0.000000
vn 0.000000 -1.000000 0.000000
vn 0.000000 -1.000000 0.000000
vn 0.000000 -1.000000 0.000000
vn 0.000000 -1.000000 0.000000
vn 0.000000 -1.000000 0.000000
vn 0.000000 -1.000000 0.000000
vn 0.000000 -1.000000 0.000000
vn 0.000000 -1.000000 0.000000
vn 0.000000 -1.000000 0.000000
vn 0.000000 -1.000000 0.000000
vn 0.000000 -1.000000 0.000000
vn 0.000000 -1.000000 0.000000
vn 0.000000 -1.000000 0.000000
vn 0.000000 -1.000000 0.000000
vn 0.000000 -1.000000 0.000002
vn 0.000000 -1.000000 0.000002
vn 0.000000 -1.000000 0.000002
vn 0.000000 -1.000000 0.000000
vn 0.000000 -1.000000 0.000000
vn 0.000000 -1.000000 0.000000
vn 0.000000 -1.000000 -0.000002
vn 0.000000 -1.000000 -0.000002
vn 0.000000 -1.000000 -0.000002
vn 0.000000 -1.000000 -0.000001
vn 0.000000 -1.000000 -0.000001
vn 0.000000 -1.000000 -0.000001
vn 0.000000 -1.000000 0.000000
vn 0.000000 -1.000000 0.000000
vn 0.000000 -1.000000 0.000000
vn 0.469771 -0.342436 -0.813667
vn 0.469771 -0.342436 -0.813667
vn 0.469771 -0.342436 -0.813667
vn 0.469771 -0.342435 -0.813667
vn 0.000000 -0.087286 -0.996183
vn 0.000000 -0.087286 -0.996183
vn 0.000000 -0.087286 -0.996183
vn 0.000000 -0.087286 -0.996183
vn -0.469771 -0.342435 -0.813667
vn -0.469771 -0.342435 -0.813667
vn -0.469771 -0.342435 -0.813667
vn -0.469771 -0.342435 -0.813667
vn -0.862720 -0.087286 -0.498092
vn -0.862720 -0.087286 -0.498092
vn -0.862720 -0.087286 -0.498092
vn -0.862720 -0.087286 -0.498092
vn -0.939541 -0.342436 -0.000000
vn -0.939541 -0.342436 -0.000000
vn -0.939541 -0.342436 -0.000000
vn -0.939541 -0.342436 -0.000000
vn -0.862720 -0.087286 0.498092
vn -0.862720 -0.087286 0.498092
vn -0.862720 -0.087286 0.498092
vn -0.862720 -0.087286 0.498092
vn -0.469771 -0.342435 0.813666
vn -0.469771 -0.342435 0.813666
vn -0.469771 -0.342435 0.813666
vn -0.469771 -0.342435 0.813666
vn 0.000000 -0.087286 0.996183
vn 0.000000 -0.087286 0.996183
vn 0.000000 -0.087286 0.996183
vn 0.000000 -0.087286 0.996183
vn 0.469770 -0.342435 0.813667
vn 0.469770 -0.342435 0.813667
vn 0.469770 -0.342435 0.813667
vn 0.469770 -0.342435 0.813667
vn 0.862720 -0.087286 0.498092
vn 0.862720 -0.087286 0.498092
vn 0.862720 -0.087286 0.498092
vn 0.862720 -0.087286 0.498092
vn 0.939541 -0.342435 0.000000
vn 0.939541 -0.342435 0.000000
vn 0.939541 -0.342435 0.000000
vn 0.939541 -0.342435 0.000000
vn 0.862720 -0.087286 -0.498092
vn 0.862720 -0.087286 -0.498092
vn 0.862720 -0.087286 -0.498092
vn 0.862720 -0.087286 -0.498092
vn 0.000000 -0.087286 -0.996183
vn 0.000000 -0.087286 -0.996183
vn 0.000000 -0.087286 -0.996183
vn 0.000000 -0.087286 -0.996183
vn -0.862720 -0.087286 -0.498092
vn -0.862720 -0.087286 -0.498092
vn -0.862720 -0.087286 -0.498092
vn -0.862720 -0.087286 -0.498092
vn -0.862720 -0.087286 0.498091
vn -0.862720 -0.087286 0.498091
vn -0.862720 -0.087286 0.498091
vn -0.862720 -0.087286 0.498091
vn -0.000000 -0.087286 0.996183
vn -0.000000 -0.087286 0.996183
vn -0.000000 -0.087286 0.996183
vn -0.000000 -0.087286 0.996183
vn 0.862720 -0.087286 0.498092
vn 0.862720 -0.087286 0.498092
vn 0.862720 -0.087286 0.498092
vn 0.862720 -0.087286 0.498092
vn 0.862720 -0.087286 -0.498091
vn 0.862720 -0.087286 -0.498091
vn 0.862720 -0.087286 -0.498091
vn 0.862720 -0.087286 -0.498091
vn 0.497461 -0.100662 -0.861627
vn 0.497461 -0.100662 -0.861627
vn 0.497461 -0.100662 -0.861627
vn 0.497461 -0.100662 -0.861627
vn -0.497460 -0.100662 -0.861627
vn -0.497460 -0.100662 -0.861627
vn -0.497460 -0.100662 -0.861627
vn -0.497460 -0.100662 -0.861627
vn -0.994921 -0.100662 -0.000000
vn -0.994921 -0.100662 -0.000000
vn -0.994921 -0.100662 -0.000000
vn -0.994921 -0.100662 -0.000000
vn -0.497460 -0.100662 0.861627
vn -0.497460 -0.100662 0.861627
vn -0.497460 -0.100662 0.861627
vn -0.497460 -0.100662 0.861627
vn 0.497460 -0.100662 0.861627
vn 0.497460 -0.100662 0.861627
vn 0.497460 -0.100662 0.861627
vn 0.497460 -0.100662 0.861627
vn 0.994921 -0.100662 0.000000
vn 0.994921 -0.100662 0.000000
vn 0.994921 -0.100662 0.000000
vn 0.994921 -0.100662 0.000000
vn 0.413179 -0.563142 -0.715650
vn 0.413179 -0.563142 -0.715650
vn 0.413179 -0.563142 -0.715650
vn -0.413181 -0.563142 -0.715648
vn -0.413181 -0.563142 -0.715648
vn -0.413181 -0.563142 -0.715648
vn -0.826363 -0.563138 -0.000000
vn -0.826363 -0.563138 -0.000000
vn -0.826363 -0.563138 -0.000000
vn -0.413184 -0.563140 0.715648
vn -0.413184 -0.563140 0.715648
vn -0.413184 -0.563140 0.715648
vn 0.413178 -0.563143 0.715650
vn 0.413178 -0.563143 0.715650
vn 0.413178 -0.563143 0.715650
vn 0.826363 -0.563138 0.000000
vn 0.826363 -0.563138 0.000000
vn 0.826363 -0.563138 0.000000
vn 0.638538 0.675543 -0.368660
vn 0.638538 0.675543 -0.368660
vn 0.638538 0.675543 -0.368660
vn 0.638538 0.675543 -0.368660
vn 0.000000 0.675544 -0.737320
vn 0.000000 0.675544 -0.737320
vn 0.000000 0.675544 -0.737320
vn 0.000000 0.675544 -0.737320
vn -0.638538 0.675544 -0.368660
vn -0.638538 0.675544 -0.368660
vn -0.638538 0.675544 -0.368660
vn -0.638538 0.675544 -0.368660
vn -0.638539 0.675544 0.368659
vn -0.638539 0.675544 0.368659
vn -0.638538 0.675544 0.368659
vn -0.638539 0.675544 0.368659
vn -0.000000 0.675542 0.737321
vn -0.000000 0.675542 0.737321
vn -0.000000 0.675542 0.737321
vn -0.000000 0.675542 0.737321
vn 0.638538 0.675544 0.368660
vn 0.638538 0.675544 0.368660
vn 0.638538 0.675544 0.368660
vn 0.638538 0.675544 0.368660
vn -0.298739 0.801886 0.517430
vn -0.569565 0.749414 0.337600
vn -0.577153 0.749414 0.324457
vn -0.597478 0.801885 -0.000000
vn 0.000000 -0.087286 -0.996183
vn 0.000000 -0.087286 -0.996183
vn 0.000000 -0.087286 -0.996183
vn 0.000000 -0.087286 -0.996183
vn -0.862720 -0.087287 -0.498091
vn -0.862720 -0.087287 -0.498091
vn -0.862720 -0.087287 -0.498091
vn -0.862720 -0.087287 -0.498091
vn -0.862720 -0.087286 0.498092
vn -0.862720 -0.087286 0.498092
vn -0.862720 -0.087286 0.498092
vn -0.862720 -0.087286 0.498092
vn 0.000000 -0.087286 0.996183
vn 0.000000 -0.087286 0.996183
vn 0.000000 -0.087286 0.996183
vn 0.000000 -0.087286 0.996183
vn 0.862720 -0.087286 0.498092
vn 0.862720 -0.087286 0.498092
vn 0.862720 -0.087286 0.498092
vn 0.862720 -0.087286 0.498092
vn 0.862720 -0.087285 -0.498092
vn 0.862720 -0.087285 -0.498092
vn 0.862720 -0.087285 -0.498092
vn 0.862720 -0.087285 -0.498092
vn -0.000203 1.000000 0.000354
vn 0.000203 1.000000 0.000360
vn 0.000203 1.000000 0.000360
vn -0.000203 1.000000 0.000354
vn 0.000406 1.000000 0.000005
vn 0.000406 1.000000 0.000005
vn 0.000203 1.000000 -0.000354
vn 0.000203 1.000000 -0.000354
vn -0.000203 1.000000 -0.000363
vn -0.000203 1.000000 -0.000363
vn -0.000406 1.000000 -0.000009
vn -0.000406 1.000000 -0.000009
vn -0.066157 0.101425 0.992641
vn -0.070462 0.101638 0.992323
vn 0.070462 0.101638 0.992323
vn 0.066157 0.101425 0.992641
vn 0.826574 0.101425 0.553614
vn 0.824146 0.101638 0.557183
vn 0.894608 0.101638 0.435140
vn 0.892731 0.101425 0.439027
vn 0.892731 0.101425 -0.439027
vn 0.894608 0.101639 -0.435140
vn 0.824146 0.101639 -0.557183
vn 0.826574 0.101425 -0.553614
vn 0.066157 0.101425 -0.992641
vn 0.070462 0.101638 -0.992323
vn -0.070462 0.101638 -0.992323
vn -0.066157 0.101425 -0.992641
vn -0.826574 0.101425 -0.553614
vn -0.824146 0.101639 -0.557183
vn -0.894608 0.101639 -0.435140
vn -0.892731 0.101425 -0.439027
vn -0.892731 0.101425 0.439027
vn -0.894608 0.101638 0.435140
vn -0.824146 0.101638 0.557183
vn -0.826574 0.101425 0.553614
vn -0.000000 1.000000 -0.000000
vn -0.000000 1.000000 -0.000000
vn -0.000000 1.000000 -0.000000
vn -0.000000 1.000000 -0.000000
vn 0.000000 1.000000 -0.000000
vn 0.569566 0.749413 0.337601
vn 0.298739 0.801886 0.517431
vn 0.597478 0.801885 0.000000
vn 0.577154 0.749413 0.324457
vn 0.000000 1.000000 -0.000000
vn 0.000000 1.000000 -0.000000
vn 0.000000 1.000000 0.000000
vn -0.007589 0.749414 0.662058
vn 0.007588 0.749414 0.662058
vn -0.000000 1.000000 0.000000
vn -0.000000 1.000000 0.000000
vn -0.000000 1.000000 0.000000
vn -0.000000 1.000000 0.000000
vn 0.577154 0.749414 -0.324457
vn 0.298739 0.801886 -0.517430
vn 0.569566 0.749414 -0.337600
vn -0.000000 1.000000 0.000000
vn -0.000000 1.000000 0.000000
vn 0.000000 1.000000 0.000000
vn -0.000000 1.000000 0.000000
vn 0.007588 0.749414 -0.662059
vn -0.298739 0.801885 -0.517431
vn -0.007588 0.749414 -0.662059
vn 0.000000 1.000000 0.000000
vn 0.000000 1.000000 0.000000
vn 0.000000 1.000000 -0.000000
vn -0.569566 0.749413 -0.337601
vn -0.577154 0.749413 -0.324457
vn 0.000000 1.000000 -0.000000
vn 0.000000 1.000000 -0.000000
g glass
usemtl initialShadingGroup
f 2/8/1 4/7/2 23/19/3 22/18/4 1/6/5
f 6/10/6 8/1/7 3/9/8 2/8/9 1/6/10
f 10/12/11 12/2/12 7/11/13 6/10/6 1/6/10
f 14/14/14 16/3/15 11/13/16 10/12/11 1/6/10
f 18/16/17 20/4/18 15/15/19 14/14/14 1/6/10
f 22/18/20 24/5/21 19/17/22 18/16/17 1/6/10
f 2/8/9 3/9/8 4/7/23
f 6/10/24 7/11/25 8/1/26
f 10/12/27 11/13/28 12/2/29
f 14/14/30 15/15/31 16/3/32
f 18/16/33 19/17/34 20/4/35
f 22/18/36 23/19/37 24/5/38
f 26/22/39 27/48/40 46/20/41 47/36/42
f 27/48/43 26/22/44 29/38/45 28/68/46
f 28/68/47 29/38/48 30/24/49 31/50/50
f 31/50/51 30/24/52 33/40/53 32/71/54
f 32/71/55 33/40/56 34/26/57 35/51/58
f 35/51/59 34/26/60 37/42/61 36/74/62
f 36/74/63 37/42/64 38/28/65 39/52/66
f 39/52/67 38/28/68 41/44/69 40/77/70
f 40/77/71 41/44/72 42/30/73 43/53/74
f 43/53/75 42/30/76 45/46/77 44/80/78
f 44/80/79 45/46/80 48/32/81 49/54/82
f 47/21/83 46/83/84 49/54/85 48/32/86
f 26/22/87 3/35/88 8/23/89 29/38/90
f 30/24/91 7/37/92 12/25/93 33/40/94
f 34/26/95 11/39/96 16/27/97 37/42/98
f 38/28/99 15/41/100 20/29/101 41/44/102
f 42/30/103 19/43/104 24/31/105 45/46/106
f 48/32/107 23/45/108 4/33/109 47/21/110
f 4/34/111 3/35/112 26/22/113 47/36/114
f 8/23/115 7/37/116 30/24/117 29/38/118
f 12/25/119 11/39/120 34/26/121 33/40/122
f 16/27/123 15/41/124 38/28/125 37/42/126
f 20/29/127 19/43/128 42/30/129 41/44/130
f 24/31/131 23/45/132 48/32/133 45/46/134
f 46/47/135 27/48/136 5/49/137
f 31/50/138 9/69/139 28/68/140
f 35/51/141 13/72/142 32/71/143
f 39/52/144 17/75/145 36/74/146
f 43/53/147 21/78/148 40/77/149
f 49/54/150 25/81/151 44/80/152
f 51/55/153 52/56/154 62/57/155 61/85/156
f 52/58/157 51/70/158 53/73/159 54/59/160
f 54/60/161 53/73/162 55/76/163 56/61/164
f 56/62/165 55/76/166 57/79/167 58/63/168
f 58/64/169 57/79/170 59/82/171 60/65/172
f 60/66/173 59/82/174 61/85/175 62/67/176
f 63/87/177 77/102/178 98/128/179 68/98/180
f 5/49/181 27/48/43 28/68/46 9/69/182 53/73/183 51/70/184
f 9/69/185 31/50/51 32/71/54 13/72/186 55/76/187 53/73/188
f 13/72/189 35/51/59 36/74/62 17/75/190 57/79/191 55/76/192
f 17/75/193 39/52/67 40/77/70 21/78/194 59/82/195 57/79/196
f 21/78/197 43/53/75 44/80/78 25/81/198 61/85/199 59/82/200
f 25/81/201 49/54/85 46/83/84 5/84/202 51/55/203 61/85/204
f 52/96/205 54/86/206 64/89/207 63/87/208
f 54/86/206 56/88/209 65/91/210 64/89/207
f 56/88/209 58/90/211 66/93/212 65/91/210
f 58/90/211 60/92/213 67/95/214 66/93/212
f 60/92/213 62/94/215 68/98/216 67/95/214
f 62/94/215 52/96/205 63/87/208 68/98/216
f 74/101/217 78/116/218 72/100/219 71/112/220
f 69/99/221 73/113/222 82/104/223 81/118/224
f 79/103/225 83/119/226 87/106/227 86/121/228
f 84/105/229 88/122/230 92/108/231 91/124/232
f 89/107/233 93/125/234 97/110/235 96/127/236
f 94/109/237 98/128/238 77/102/239 76/115/240
f 70/111/241 69/99/242 81/118/243 80/117/244 50/97/245
f 73/113/246 64/89/247 65/91/248 82/104/249
f 75/114/250 74/101/251 71/112/252 70/111/241 50/97/245
f 78/116/253 63/87/177 64/89/247 72/100/254
f 80/117/244 79/103/255 86/121/256 85/120/257 50/97/258
f 83/119/259 65/91/248 66/93/260 87/106/261
f 85/120/257 84/105/262 91/124/263 90/123/264 50/97/265
f 88/122/266 66/93/260 67/95/267 92/108/268
f 90/123/264 89/107/269 96/127/270 95/126/271 50/97/245
f 93/125/272 67/95/267 68/98/180 97/110/273
f 95/126/271 94/109/274 76/115/275 75/114/250 50/97/245
f 69/99/221 71/112/220 72/100/219 73/113/222
f 74/101/217 76/115/240 77/102/239 78/116/218
f 79/103/225 81/118/224 82/104/223 83/119/226
f 84/105/229 86/121/228 87/106/227 88/122/230
f 89/107/233 91/124/232 92/108/231 93/125/234
f 94/109/237 96/127/236 97/110/235 98/128/238
f 69/99/242 70/111/241 71/112/252
f 72/100/254 64/89/247 73/113/246
f 74/101/251 75/114/250 76/115/275
f 77/102/178 63/87/177 78/116/253
f 79/103/255 80/117/244 81/118/243
f 82/104/249 65/91/248 83/119/259
f 84/105/262 85/120/257 86/121/256
f 87/106/261 66/93/260 88/122/266
f 89/107/269 90/123/264 91/124/263
f 92/108/268 67/95/267 93/125/272
f 94/109/274 95/126/271 96/127/270
f 97/110/273 68/98/180 98/128/179
